<svg width="10" height="10" viewBox="0 0 10 10" fill="none" xmlns="http://www.w3.org/2000/svg">
<g clip-path="url(#clip0_4_74)">
<path d="M5.41666 0.833332H5.53041C6.88874 0.833332 7.56874 0.833332 8.04041 1.16583C8.17541 1.26083 8.29541 1.37417 8.39666 1.50125C8.74999 1.94542 8.74999 2.58458 8.74999 3.86375V4.92417C8.74999 6.15875 8.74999 6.77625 8.55457 7.26916C8.24041 8.06208 7.57624 8.68708 6.73374 8.98292C6.20999 9.16667 5.55457 9.16667 4.24207 9.16667C3.49291 9.16667 3.11791 9.16666 2.81874 9.06166C2.33749 8.8925 1.95791 8.53542 1.77832 8.0825C1.66666 7.80083 1.66666 7.44791 1.66666 6.7425V5" stroke="#353535" stroke-width="1.5" stroke-linecap="round" stroke-linejoin="round"/>
<path d="M8.75 5C8.75 5.36832 8.60369 5.72155 8.34324 5.98199C8.0828 6.24243 7.72957 6.38875 7.36125 6.38875C7.08375 6.38875 6.75667 6.34042 6.48708 6.4125C6.36934 6.44416 6.26198 6.50621 6.17576 6.59243C6.08955 6.67865 6.0275 6.786 5.99583 6.90375C5.92375 7.17333 5.97208 7.50042 5.97208 7.77792C5.97208 7.96029 5.93616 8.14088 5.86637 8.30937C5.79658 8.47786 5.69429 8.63095 5.56533 8.75991C5.43637 8.88887 5.28328 8.99116 5.11478 9.06095C4.94629 9.13074 4.76571 9.16667 4.58333 9.16667M4.58333 2.5H1.25M2.91667 0.833332V4.16667" stroke="#353535" stroke-width="1.5" stroke-linecap="round" stroke-linejoin="round"/>
</g>
<defs>
<clipPath id="clip0_4_74">
<rect width="10" height="10" fill="white"/>
</clipPath>
</defs>
</svg>
