<svg width="13" height="13" viewBox="0 0 13 13" fill="none" xmlns="http://www.w3.org/2000/svg">
<g clip-path="url(#clip0_48_2)">
<path d="M7.04169 1.08333H7.18956C8.95539 1.08333 9.8394 1.08333 10.4526 1.51558C10.6281 1.63908 10.7841 1.78642 10.9157 1.95162C11.375 2.52904 11.375 3.35996 11.375 5.02287V6.40141C11.375 8.00637 11.375 8.80912 11.121 9.44991C10.7126 10.4807 9.84914 11.2932 8.75389 11.6778C8.07302 11.9167 7.22098 11.9167 5.51473 11.9167C4.54081 11.9167 4.05331 11.9167 3.6644 11.7802C3.03877 11.5602 2.54531 11.096 2.31185 10.5072C2.16669 10.1411 2.16669 9.68229 2.16669 8.76525V6.5" stroke="#353535" stroke-width="1.5" stroke-linecap="round" stroke-linejoin="round"/>
<path d="M11.375 6.5C11.375 6.97881 11.1848 7.43802 10.8462 7.77659C10.5076 8.11516 10.0484 8.30537 9.56963 8.30537C9.20888 8.30537 8.78367 8.24254 8.43321 8.33625C8.28014 8.37741 8.14057 8.45808 8.02849 8.57016C7.91641 8.68224 7.83575 8.8218 7.79458 8.97487C7.70088 9.32533 7.76371 9.75054 7.76371 10.1113C7.76371 10.3484 7.71701 10.5831 7.62628 10.8022C7.53555 11.0212 7.40257 11.2202 7.23493 11.3879C7.06728 11.5555 6.86826 11.6885 6.64922 11.7792C6.43018 11.87 6.19542 11.9167 5.95833 11.9167M5.95833 3.25H1.625M3.79167 1.08333V5.41667" stroke="#353535" stroke-width="1.5" stroke-linecap="round" stroke-linejoin="round"/>
</g>
<defs>
<clipPath id="clip0_48_2">
<rect width="13" height="13" fill="white"/>
</clipPath>
</defs>
</svg>
