<svg width="18" height="18" viewBox="0 0 18 18" fill="none" xmlns="http://www.w3.org/2000/svg">
<g clip-path="url(#clip0_22_27)">
<path d="M9.80503 9L12.235 6.57C12.3169 6.47435 12.3597 6.35131 12.3549 6.22547C12.35 6.09964 12.2979 5.98027 12.2088 5.89122C12.1198 5.80217 12.0004 5.75 11.8746 5.74514C11.7487 5.74028 11.6257 5.78309 11.53 5.865L9.10003 8.27L6.65503 5.825C6.55938 5.74309 6.43634 5.70028 6.3105 5.70514C6.18466 5.71 6.06529 5.76217 5.97625 5.85122C5.8872 5.94027 5.83503 6.05964 5.83017 6.18547C5.82531 6.31131 5.86811 6.43435 5.95003 6.53L8.39003 9L6.00003 11.36C5.94769 11.4048 5.90518 11.46 5.87517 11.522C5.84515 11.584 5.82829 11.6516 5.82563 11.7205C5.82297 11.7893 5.83457 11.858 5.85971 11.9222C5.88485 11.9863 5.92298 12.0446 5.9717 12.0933C6.02043 12.1421 6.0787 12.1802 6.14287 12.2053C6.20703 12.2305 6.2757 12.2421 6.34456 12.2394C6.41341 12.2367 6.48098 12.2199 6.54301 12.1899C6.60505 12.1599 6.6602 12.1173 6.70503 12.065L9.09003 9.68L11.46 12.05C11.5557 12.1319 11.6787 12.1747 11.8046 12.1699C11.9304 12.165 12.0498 12.1128 12.1388 12.0238C12.2279 11.9347 12.28 11.8154 12.2849 11.6895C12.2897 11.5637 12.2469 11.4407 12.165 11.345L9.80503 9Z" fill="#353535"/>
<path d="M9 17C7.41775 17 5.87103 16.5308 4.55544 15.6518C3.23985 14.7727 2.21447 13.5233 1.60897 12.0615C1.00347 10.5997 0.84504 8.99113 1.15372 7.43928C1.4624 5.88743 2.22433 4.46197 3.34315 3.34315C4.46197 2.22433 5.88743 1.4624 7.43928 1.15372C8.99113 0.845036 10.5997 1.00346 12.0615 1.60896C13.5233 2.21446 14.7727 3.23984 15.6518 4.55544C16.5308 5.87103 17 7.41775 17 9C17 11.1217 16.1571 13.1566 14.6569 14.6569C13.1566 16.1571 11.1217 17 9 17ZM9 2C7.61553 2 6.26216 2.41054 5.11101 3.17971C3.95987 3.94888 3.06266 5.04213 2.53285 6.32122C2.00303 7.6003 1.86441 9.00776 2.13451 10.3656C2.4046 11.7235 3.07129 12.9708 4.05026 13.9497C5.02922 14.9287 6.2765 15.5954 7.63437 15.8655C8.99224 16.1356 10.3997 15.997 11.6788 15.4672C12.9579 14.9373 14.0511 14.0401 14.8203 12.889C15.5895 11.7378 16 10.3845 16 9C16 7.14348 15.2625 5.36301 13.9498 4.05025C12.637 2.7375 10.8565 2 9 2Z" fill="#353535"/>
</g>
<defs>
<clipPath id="clip0_22_27">
<rect width="18" height="18" fill="white"/>
</clipPath>
</defs>
</svg>
