<svg width="19" height="41" viewBox="0 0 19 41" fill="none" xmlns="http://www.w3.org/2000/svg">
<path d="M6.24219 35.2969L8.0625 25.625H9.26562L9.625 27.125L7.67188 37H6.36719L6.24219 35.2969ZM5.61719 25.625L7.08594 35.3203L6.83594 37H5.39844L3.35938 25.625H5.61719ZM10.9453 35.2812L12.4062 25.625H14.6562L12.6328 37H11.1875L10.9453 35.2812ZM9.96094 25.625L11.7969 35.3516L11.6484 37H10.3438L8.39844 27.1094L8.76562 25.625H9.96094Z" fill="white"/>
<path d="M5.06592 20.3389L7.91016 5.22656H9.79004L10.3516 7.57031L7.2998 23H5.26123L5.06592 20.3389ZM4.08936 5.22656L6.38428 20.3755L5.99365 23H3.74756L0.561523 5.22656H4.08936ZM12.4146 20.3145L14.6973 5.22656H18.2129L15.0513 23H12.793L12.4146 20.3145ZM10.8765 5.22656L13.7451 20.4243L13.5132 23H11.4746L8.43506 7.5459L9.00879 5.22656H10.8765Z" fill="white"/>
</svg>
